IKResults
version=1
nRows=20
nColumns=29
inDegrees=yes

Units are S.I. units (second, meters, Newtons, ...)
If the header above contains a line with 'inDegrees', this indicates whether rotational values are in degrees (yes) or radians (no).

endheader
time	sternoclavicular_r2	sternoclavicular_r3	unrotscap_r3	unrotscap_r2	acromioclavicular_r2	acromioclavicular_r3	acromioclavicular_r1	unrothum_r1	unrothum_r3	unrothum_r2	elv_angle	shoulder_elv	shoulder1_r2	shoulder_rot	elbow_flexion	pro_sup	deviation	flexion	proximal_distal_r1	proximal_distal_r3	cmc_flexion	cmc_abduction	mp_flexion	ip_flexion	2mcp_flexion	2mcp_abduction	2pm_flexion	2md_flexion
      0.00000000	     -6.63748849	      2.81132685	     -2.81132685	      6.63748849	     -1.34395640	     10.86138290	      4.88211686	     -4.88211686	    -10.86138290	      1.34395640	     16.17288435	     27.42757691	    -16.17288435	      7.48976140	     78.67319014	     41.82696890	      0.22824739	      0.04061208	     15.30497377	      1.16345028	      3.36700001	     10.93518790	    -27.65299999	    -34.18399999	     -1.26823123	      7.65299997	     26.93900001	     34.89800000
      0.01000000	     -6.63745190	      2.81131135	     -2.81131135	      6.63745190	     -1.34394899	     10.86132302	      4.88208995	     -4.88208995	    -10.86132302	      1.34394899	     16.19089851	     27.42742570	    -16.19089851	      7.47684026	     78.68316629	     41.92656443	      0.22851912	      0.04205129	     15.32032589	      1.20468059	      3.36700001	     10.99945676	    -27.65299999	    -34.18399999	     -0.92568495	      7.65299997	     26.93900001	     34.89800000
      0.02000000	     -6.63963950	      2.81223792	     -2.81223792	      6.63963950	     -1.34439194	     10.86490274	      4.88369901	     -4.88369901	    -10.86490274	      1.34439194	     16.15445086	     27.43646536	    -16.15445086	      7.41056051	     78.67396727	     41.92539208	      0.22856619	      0.04188558	     15.32293325	      1.19993346	      3.36700001	     11.00223901	    -27.65299999	    -34.18399999	     -0.92861349	      7.65299997	     26.93900001	     34.89800000
      0.03000000	     -6.63467168	      2.81013378	     -2.81013378	      6.63467168	     -1.34338606	     10.85677355	      4.88004499	     -4.88004499	    -10.85677355	      1.34338606	     16.07142776	     27.41593722	    -16.07142776	      7.45446833	     78.69727444	     41.78164459	      0.22999705	      0.03382864	     15.40346198	      0.96911929	      3.36700001	     11.59127070	    -27.65299999	    -34.18399999	     -0.36911499	      7.65299997	     26.93900001	     34.89800000
      0.04000000	     -6.63867361	      2.81182881	     -2.81182881	      6.63867361	     -1.34419636	     10.86332219	      4.88298856	     -4.88298856	    -10.86332219	      1.34419636	     16.07670661	     27.43247409	    -16.07670661	      7.48415229	     78.68316960	     41.75338533	      0.22944276	      0.03409239	     15.37231909	      0.97667499	      3.36700001	     11.53167023	    -27.65299999	    -34.18399999	     -0.34648437	      7.65299997	     26.93900001	     34.89800000
      0.05000000	     -6.63845804	      2.81173751	     -2.81173751	      6.63845804	     -1.34415272	     10.86296943	      4.88283000	     -4.88283000	    -10.86296943	      1.34415272	     16.07941343	     27.43158329	    -16.07941343	      7.48101215	     78.67535957	     41.71898665	      0.22862120	      0.03456925	     15.32603477	      0.99033596	      3.36700001	     11.45032347	    -27.65299999	    -34.18399999	     -0.30940285	      7.65299997	     26.93900001	     34.89800000
      0.06000000	     -6.64063550	      2.81265978	     -2.81265978	      6.64063550	     -1.34459361	     10.86653257	      4.88443160	     -4.88443160	    -10.86653257	      1.34459361	     16.12100268	     27.44058105	    -16.12100268	      7.50374040	     78.64847947	     41.75094654	      0.22608617	      0.03374459	     15.18298149	      0.96671133	      3.36700001	     11.54451349	    -27.65299999	    -34.18399999	     -0.21910928	      7.65299997	     26.93900001	     34.89800000
      0.07000000	     -6.64013917	      2.81244955	     -2.81244955	      6.64013917	     -1.34449311	     10.86572039	      4.88406653	     -4.88406653	    -10.86572039	      1.34449311	     16.12641350	     27.43853011	    -16.12641350	      7.49641410	     78.64931035	     41.67135207	      0.22715559	      0.03376590	     15.24339718	      0.96732171	      3.36700001	     11.73182282	    -27.65299999	    -34.18399999	     -0.14003591	      7.65299997	     26.93900001	     34.89800000
      0.08000000	     -6.63846213	      2.81173924	     -2.81173924	      6.63846213	     -1.34415355	     10.86297614	      4.88283301	     -4.88283301	    -10.86297614	      1.34415355	     16.12192055	     27.43160023	    -16.12192055	      7.48932434	     78.65314768	     41.70071480	      0.22670425	      0.03240239	     15.21790578	      0.92826013	      3.36700001	     11.67755548	    -27.65299999	    -34.18399999	      0.01346177	      7.65299997	     26.93900001	     34.89800000
      0.09000000	     -6.63797355	      2.81153230	     -2.81153230	      6.63797355	     -1.34405462	     10.86217664	      4.88247364	     -4.88247364	    -10.86217664	      1.34405462	     16.11815758	     27.42958129	    -16.11815758	      7.50185247	     78.66757942	     41.69583678	      0.22889313	      0.03230658	     15.34134159	      0.92551540	      3.36700001	     11.74015053	    -27.65299999	    -34.18399999	     -0.10633277	      7.65299997	     26.93900001	     34.89800000
      0.10000000	     -6.63304135	      2.80944325	     -2.80944325	      6.63304135	     -1.34305595	     10.85410573	      4.87884583	     -4.87884583	    -10.85410573	      1.34305595	     16.08203519	     27.40920034	    -16.08203519	      7.40554866	     78.68506529	     41.39696229	      0.23006970	      0.03972024	     15.40751996	      1.13790116	      3.36700001	     11.80005747	    -27.65299999	    -34.18399999	     -0.52593935	      7.65299997	     26.93900001	     34.89800000
      0.11000000	     -6.63179958	      2.80891730	     -2.80891730	      6.63179958	     -1.34280451	     10.85207374	      4.87793246	     -4.87793246	    -10.85207374	      1.34280451	     16.10127585	     27.40406908	    -16.10127585	      7.35128670	     78.61178066	     42.11752885	      0.21271160	      0.03295830	     14.41823095	      0.94418582	      3.36700001	     10.94020922	    -27.65299999	    -34.18399999	     -0.11152837	      7.65299997	     26.93900001	     34.89800000
      0.12000000	     -6.63673587	      2.81100808	     -2.81100808	      6.63673587	     -1.34380401	     10.86015134	      4.88156328	     -4.88156328	    -10.86015134	      1.34380401	     16.08270961	     27.42446693	    -16.08270961	      7.37979573	     78.61292931	     42.03355075	      0.21435875	      0.03285746	     14.51329966	      0.94129681	      3.36700001	     10.92826744	    -27.65299999	    -34.18399999	     -0.10015045	      7.65299997	     26.93900001	     34.89800000
      0.13000000	     -6.64027799	      2.81250835	     -2.81250835	      6.64027799	     -1.34452122	     10.86594755	      4.88416864	     -4.88416864	    -10.86594755	      1.34452122	     16.12318705	     27.43910375	    -16.12318705	      7.52831962	     78.64322391	     41.80788165	      0.22851820	      0.03172639	     15.32023068	      0.90889423	      3.36700001	     11.44972926	    -27.65299999	    -34.18399999	     -0.24476939	      7.65299997	     26.93900001	     34.89800000
      0.14000000	     -6.63793548	      2.81151618	     -2.81151618	      6.63793548	     -1.34404691	     10.86211434	      4.88244564	     -4.88244564	    -10.86211434	      1.34404691	     16.12927014	     27.42942398	    -16.12927014	      7.46275468	     78.66542509	     41.55184972	      0.22928861	      0.03632172	     15.36362100	      1.04054060	      3.36700001	     11.71925806	    -27.65299999	    -34.18399999	     -0.29796749	      7.65299997	     26.93900001	     34.89800000
      0.15000000	     -6.64589566	      2.81488773	     -2.81488773	      6.64589566	     -1.34565868	     10.87514013	      4.88830064	     -4.88830064	    -10.87514013	      1.34565868	     16.12762219	     27.46231719	    -16.12762219	      7.50626921	     78.64874355	     41.55949911	      0.22816999	      0.03585175	     15.30062768	      1.02707696	      3.36700001	     11.59191966	    -27.65299999	    -34.18399999	     -0.29248585	      7.65299997	     26.93900001	     34.89800000
      0.16000000	     -6.64721957	      2.81544848	     -2.81544848	      6.64721957	     -1.34592675	     10.87730654	      4.88927443	     -4.88927443	    -10.87730654	      1.34592675	     16.12713683	     27.46778789	    -16.12713683	      7.48868714	     78.65520271	     41.55942072	      0.22818093	      0.03575813	     15.30122845	      1.02439492	      3.36700001	     11.59163965	    -27.65299999	    -34.18399999	     -0.29350841	      7.65299997	     26.93900001	     34.89800000
      0.17000000	     -6.63827970	      2.81166197	     -2.81166197	      6.63827970	     -1.34411661	     10.86267761	      4.88269883	     -4.88269883	    -10.86267761	      1.34411661	     16.12727156	     27.43084638	    -16.12727156	      7.43571054	     78.68138769	     41.60285820	      0.22830039	      0.03834849	     15.30796872	      1.09860337	      3.36700001	     11.64704842	    -27.65299999	    -34.18399999	     -0.25218502	      7.65299997	     26.93900001	     34.89800000
      0.18000000	     -6.63976255	      2.81229004	     -2.81229004	      6.63976255	     -1.34441685	     10.86510410	      4.88378952	     -4.88378952	    -10.86510410	      1.34441685	     16.05828996	     27.43697384	    -16.05828996	      7.46029378	     78.72321919	     41.32590733	      0.22952484	      0.03846201	     15.37688159	      1.10185549	      3.36700001	     11.81888875	    -27.65299999	    -34.18399999	     -0.48629839	      7.65299997	     26.93900001	     34.89800000
      0.19000000	     -6.63888254	      2.81191731	     -2.81191731	      6.63888254	     -1.34423867	     10.86366408	      4.88314224	     -4.88314224	    -10.86366408	      1.34423867	     16.07540776	     27.43333744	    -16.07540776	      7.45081201	     78.72070545	     41.29571417	      0.23228965	      0.03960319	     15.53204065	      1.13454781	      3.36700001	     11.65790113	    -27.65299999	    -34.18399999	     -0.54048668	      7.65299997	     26.93900001	     34.89800000
